# This file uses meters as units for non-parametric coordinates.

mtllib Rock_Small.mtl
g default
v 5.582578 -1.923400 -0.982513
v 3.313799 -1.990950 -6.214512
v 9.401111 13.104573 -0.311185
v 7.576779 11.915755 -9.884556
v -9.695843 14.996430 10.348300
v -18.178346 14.194580 -4.891849
v -10.891218 -1.503796 5.624382
v -11.706829 -1.744069 -0.588816
v 13.840029 -0.449706 0.333539
v 7.253998 -1.865846 -11.900103
v -18.231878 -1.120982 -3.715995
v -13.250141 1.401715 11.557614
v -13.121754 12.486066 13.567747
v -23.754583 8.942027 -5.664193
v 12.148906 11.220608 -15.072746
v 16.866992 9.700631 2.201223
v -17.800043 1.423792 7.915018
v -17.649372 11.486785 6.664932
v -14.199672 13.670844 4.834206
v 14.146210 8.693996 -4.808831
v 10.685873 -0.167998 -4.420792
v -18.810541 -0.121444 1.027111
v 7.582264 -1.500785 -7.908178
v 13.769091 8.400541 -10.295777
v -17.255918 13.361603 0.573068
v -21.223374 9.181426 0.944835
v 5.464647 17.288223 11.495250
v -1.191594 14.670439 1.366767
v -2.186391 11.105815 -6.797783
v -4.472108 11.850656 -12.125013
v -4.249619 8.540451 -19.351379
v -4.596942 -3.182875 -12.601738
v -4.351659 -3.024497 -10.254675
v -3.547431 -2.218316 -5.016018
v 0.341646 -1.973839 5.847547
v 3.585245 -2.746246 10.594313
v 5.573510 -0.812866 14.797589
v 7.401025 15.350009 19.684268
v -13.536191 -2.306346 -8.522696
v -15.516515 7.648119 -13.124019
v -12.055341 13.130953 -8.151375
v -10.974814 12.089845 -3.391312
v -9.337548 14.749757 4.243678
v -2.436120 15.399271 11.914403
v -3.498432 13.331970 17.961827
v -4.306120 0.274258 15.107376
v 12.069961 15.643525 11.588049
v 2.633461 12.747736 -14.378435
v 5.615211 11.168744 -19.948013
v 3.915426 -2.978944 -14.569849
v 2.177908 -1.736670 -10.332543
v 13.904034 -1.108763 7.847929
v 17.438732 15.121342 14.276669
v 15.605273 4.946250 1.136566
v 12.866946 4.585296 -4.626334
v 10.342821 3.813884 -9.394403
v 10.190777 5.013336 -14.445405
v 4.545612 4.937975 -18.638682
v -4.859766 3.840071 -17.797060
v -14.440414 3.227537 -12.058039
v -20.944540 3.697289 -5.325048
v -19.784790 4.884042 0.656674
v -17.413028 6.937730 7.552651
v -13.269916 7.383663 13.111085
v -3.239573 7.268752 17.328645
v 7.485257 8.211245 19.281407
v 15.992541 7.171141 11.557054
vt 0.526282 0.304507
vt 0.526941 0.302737
vt 0.508245 0.307601
vt 0.509374 0.306280
vt 0.575647 0.283183
vt 0.500879 0.302534
vt 0.574970 0.278424
vt 0.577702 0.279759
vt 0.579649 0.275326
vt 0.578633 0.272964
vt 0.531122 0.302527
vt 0.568718 0.280051
vt 0.567185 0.283964
vt 0.569256 0.285639
vt 0.568395 0.286262
vt 0.565426 0.285785
vt 0.567406 0.276599
vt 0.531716 0.299720
vt 0.531564 0.300569
vt 0.572081 0.272803
vt 0.582326 0.281360
vt 0.527244 0.300310
vt 0.523612 0.302091
vt 0.582686 0.286495
vt 0.522564 0.303920
vt 0.526299 0.308343
vt 0.531057 0.308741
vt 0.530126 0.310856
vt 0.523357 0.305748
vt 0.563593 0.283683
vt 0.524673 0.301014
vt 0.569068 0.288336
vt 0.571279 0.288469
vt 0.570767 0.286905
vt 0.563200 0.280323
vt 0.562432 0.287475
vt 0.577525 0.276184
vt 0.578374 0.277476
vt 0.499766 0.304659
vt 0.573853 0.277080
vt 0.505376 0.304786
vt 0.506729 0.302151
vt 0.579774 0.282635
vt 0.506964 0.296353
vt 0.560564 0.284203
vt 0.581078 0.277384
vt 0.564919 0.289876
vt 0.579578 0.279530
vt 0.510833 0.304306
vt 0.512831 0.307305
vt 0.566494 0.292453
vt 0.570121 0.293738
vt 0.530176 0.294259
vt 0.525320 0.296494
vt 0.506284 0.307203
vt 0.576114 0.275830
vt 0.576752 0.272315
vt 0.521439 0.299571
vt 0.509106 0.298749
vt 0.502911 0.305675
vt 0.504025 0.307776
vt 0.520062 0.301794
vt 0.518957 0.304920
vt 0.519581 0.307562
vt 0.522347 0.311848
vt 0.560332 0.273360
vt 0.510713 0.299743
vt 0.514758 0.303061
vt 0.558971 0.278941
vt 0.587906 0.284039
vt 0.586376 0.278969
vt 0.583464 0.274619
vt 0.581427 0.272455
vt 0.578787 0.269788
vt 0.576081 0.268903
vt 0.571020 0.269827
vt 0.499613 0.312684
vt 0.504490 0.311894
vt 0.507785 0.311012
vt 0.509937 0.310931
vt 0.511187 0.309083
vt 0.525167 0.315967
vt 0.516383 0.297099
vt 0.510532 0.295254
vt 0.575131 0.292970
vt 0.566216 0.272876
vt 0.574851 0.287377
vt 0.579386 0.286538
vt 0.565396 0.275701
vt 0.567140 0.277930
vt 0.530734 0.306634
vt 0.572505 0.283689
vt 0.574058 0.286317
vt 0.499708 0.308944
vt 0.570410 0.278997
vt 0.571619 0.281025
vt 0.502634 0.298781
vn 0.858317 -0.365098 -0.360549
vn 0.851361 -0.462502 -0.247542
vn 0.954942 0.144318 -0.259341
vn 0.842354 0.450406 -0.295929
vn -0.026906 0.970699 -0.238786
vn -0.004643 0.991957 -0.126488
vn 0.052360 0.989061 -0.137902
vn -0.098888 0.977277 -0.187485
vn -0.785692 0.468301 0.404206
vn -0.908527 0.199437 0.367155
vn -0.935566 -0.213705 0.281152
vn -0.850380 -0.056969 0.523076
vn -0.153003 -0.973073 0.172391
vn -0.100670 -0.991364 0.084045
vn 0.002675 -0.998479 0.055075
vn -0.026689 -0.999367 -0.023515
vn -0.292650 0.384147 -0.875664
vn -0.258383 -0.435114 -0.862504
vn -0.529642 -0.444628 -0.722347
vn -0.528811 0.292527 -0.796735
vn -0.288278 0.440162 0.850384
vn -0.230924 -0.222181 0.947264
vn 0.280375 -0.309491 0.908628
vn 0.170276 0.503037 0.847325
vn 0.123574 -0.992257 0.012492
vn 0.084692 -0.994995 0.053037
vn 0.590542 -0.801402 -0.094952
vn 0.667809 -0.654282 -0.354890
vn -0.182852 -0.820493 -0.541625
vn -0.000558 -0.994689 0.102926
vn -0.388010 -0.799379 -0.458740
vn -0.689576 -0.696045 0.200016
vn -0.787160 -0.445815 0.426178
vn -0.206100 -0.642058 0.738434
vn 0.002094 -0.985049 0.172264
vn 0.200039 -0.758567 0.620130
vn -0.372756 0.920754 0.115172
vn -0.306965 0.951709 0.004755
vn -0.139691 0.956320 -0.256784
vn -0.136171 0.922352 -0.361558
vn 0.172586 0.976732 -0.127315
vn 0.216259 0.934395 -0.283086
vn -0.171020 0.978856 0.112219
vn 0.020171 0.998064 -0.058840
vn -0.476366 -0.424330 0.770077
vn -0.562278 0.438911 0.700857
vn -0.547425 -0.113816 0.829079
vn -0.217687 0.959079 0.181053
vn 0.938004 0.282096 -0.201421
vn 0.956991 -0.258510 -0.131683
vn 0.823618 -0.543373 -0.162480
vn -0.666503 -0.690136 -0.281933
vn 0.673716 -0.585076 -0.451434
vn 0.709132 -0.400686 -0.580157
vn 0.721594 0.457607 -0.519517
vn -0.337149 0.894451 -0.293748
vn -0.876301 0.298428 -0.378203
vn -0.829987 -0.435562 -0.348434
vn 0.239745 0.954141 -0.179271
vn -0.095254 0.986826 -0.130770
vn 0.220704 0.575334 -0.787579
vn 0.224334 -0.399379 -0.888916
vn 0.116383 -0.742831 -0.659285
vn 0.028553 -0.999557 0.008453
vn 0.624686 -0.696612 0.352845
vn 0.795623 -0.341188 0.500575
vn 0.797938 0.504325 0.330077
s 1
g Rock_small
usemtl LanternSG
f 55/81/1 56/80/2 24/3/3 20/4/4
f 28/5/5 29/96/6 42/7/7 43/8/8
f 18/9/9 26/10/10 62/74/11 63/73/12
f 7/1/13 8/2/14 34/11/15 35/91/16
f 31/17/17 59/86/18 60/76/19 40/20/20
f 45/21/21 65/71/22 66/70/23 38/24/24
f 1/13/25 2/14/26 23/15/27 21/16/28
f 32/18/29 33/19/30 8/2/14 39/22/31
f 22/23/32 8/2/14 7/1/13 17/25/33
f 46/26/34 7/1/13 36/27/35 37/28/36
f 25/37/37 26/10/10 18/9/9 19/38/38
f 30/95/39 31/17/17 40/20/20 41/40/40
f 24/3/3 4/41/41 3/42/42 20/4/4
f 44/43/43 45/21/21 38/24/24 27/88/44
f 7/1/13 35/91/16 36/27/35
f 12/29/45 17/25/33 7/1/13
f 13/46/46 18/9/9 63/73/12 64/72/47
f 5/48/48 19/38/38 18/9/9 13/46/46
f 27/88/44 28/5/5 43/8/8 44/43/43
f 16/49/49 20/4/4 3/42/42
f 54/50/50 55/81/1 20/4/4 16/49/49
f 1/13/25 21/16/28 9/30/51
f 8/2/14 22/23/32 11/31/52
f 33/19/30 34/11/15 8/2/14
f 23/15/27 2/14/26 10/32/53
f 24/3/3 56/80/2 57/79/54 15/55/55
f 4/41/41 24/3/3 15/55/55
f 41/40/40 42/7/7 29/96/6 30/95/39
f 26/10/10 25/37/37 6/56/56 14/57/57
f 61/75/58 62/74/11 26/10/10 14/57/57
f 47/59/59 3/42/42 28/97/5 27/44/44
f 3/42/42 4/41/41 29/6/6 28/97/5
f 30/39/39 29/6/6 4/41/41 48/60/60
f 48/60/60 49/61/61 31/94/17 30/39/39
f 49/61/61 58/78/62 59/77/18 31/94/17
f 50/33/63 2/14/26 33/93/30 32/87/29
f 2/14/26 34/92/15 33/93/30
f 35/12/16 34/92/15 2/14/26 51/34/64 1/13/25
f 36/90/35 35/12/16 1/13/25
f 37/89/36 36/90/35 1/13/25 52/35/65
f 38/84/24 66/83/23 67/68/66 53/67/67
f 27/44/44 38/84/24 53/67/67 47/59/59
f 39/22/31 8/2/14 11/31/52
f 40/20/20 60/76/19 61/75/58 14/57/57
f 41/40/40 40/20/20 14/57/57 6/56/56
f 25/37/37 42/7/7 41/40/40 6/56/56
f 42/7/7 25/37/37 19/38/38 43/8/8
f 44/43/43 43/8/8 19/38/38 5/48/48
f 13/46/46 45/21/21 44/43/43 5/48/48
f 64/72/47 65/71/22 45/21/21 13/46/46
f 7/1/13 46/26/34 12/29/45
f 15/55/55 49/61/61 48/60/60 4/41/41
f 57/79/54 58/78/62 49/61/61 15/55/55
f 2/14/26 50/33/63 10/32/53
f 51/34/64 2/14/26 1/13/25
f 52/35/65 1/13/25 9/30/51
f 53/67/67 67/68/66 54/50/50 16/49/49
f 47/59/59 53/67/67 16/49/49 3/42/42
f 9/30/51 21/16/28 55/36/1 54/45/50
f 21/16/28 23/15/27 56/47/2 55/36/1
f 57/51/54 56/47/2 23/15/27 10/32/53
f 10/32/53 50/33/63 58/52/62 57/51/54
f 59/85/18 58/52/62 50/33/63 32/87/29
f 60/54/19 59/53/18 32/18/29 39/22/31
f 61/58/58 60/54/19 39/22/31 11/31/52
f 22/23/32 62/62/11 61/58/58 11/31/52
f 62/62/11 22/23/32 17/25/33 63/63/12
f 64/64/47 63/63/12 17/25/33 12/29/45
f 12/29/45 46/26/34 65/65/22 64/64/47
f 66/82/23 65/65/22 46/26/34 37/28/36
f 67/69/66 66/66/23 37/89/36 52/35/65
f 54/45/50 67/69/66 52/35/65 9/30/51
